<svg width="0" height="0">
    <defs>
        <symbol id="gear" width="15" height="15" viewBox="0 0 15 15" xmlns="http://www.w3.org/2000/svg">
            <g id="Page-1" stroke="none" stroke-width="1" fill="none" fill-rule="evenodd">
                <g id="Логистика-Copy-37" transform="translate(-1673.000000, -231.000000)" fill="#A6B7D4" fill-rule="nonzero">
                    <g id="Group-Copy" transform="translate(254.000000, 222.000000)">
                        <path d="M1427.27083,9 C1427.68511,9 1428.02084,9.33572998 1428.02084,9.75001121 L1428.02084,10.7021181 C1428.555,10.841881 1429.05942,11.0518244 1429.52452,11.32425 L1430.19725,10.6515195 C1430.49023,10.3585405 1430.96505,10.3585405 1431.25796,10.6514447 L1432.34841,11.7418945 C1432.64131,12.0348735 1432.64131,12.5096937 1432.34841,12.8025979 L1431.67568,13.4753285 C1431.94818,13.9404326 1432.15804,14.4448497 1432.29788,14.9790131 L1433.24991,14.9789384 C1433.66412,14.9789384 1434,15.3147431 1434,15.7289496 L1434,17.2710504 C1434,17.6852569 1433.6642,18.0210616 1433.24999,18.0210616 L1432.29781,18.0211363 C1432.15797,18.5552998 1431.94803,19.0596421 1431.6756,19.5247463 L1432.34841,20.1975515 C1432.64131,20.4904558 1432.64131,20.965276 1432.34841,21.2581802 L1431.25803,22.34863 C1430.96513,22.6415343 1430.49031,22.6415343 1430.1974,22.34863 L1429.52452,21.6758248 C1429.05949,21.9482503 1428.55508,22.158119 1428.02099,22.2979566 L1428.02099,23.2499888 C1428.02099,23.6641953 1427.68526,24 1427.27098,24 L1425.72895,24 C1425.31474,24 1424.97894,23.6641953 1424.97894,23.2499888 L1424.97894,22.2978819 C1424.44485,22.1580442 1423.94051,21.9482503 1423.47548,21.6758248 L1422.80267,22.34863 C1422.50977,22.6415343 1422.03495,22.6415343 1421.74204,22.34863 L1420.65159,21.258255 C1420.35869,20.9653508 1420.35869,20.4904558 1420.65159,20.1975515 L1421.3244,19.524821 C1421.0519,19.0597169 1420.84203,18.5553745 1420.70219,18.0213606 L1419.75001,18.0213606 C1419.3358,18.0213606 1419,17.6856306 1419,17.2713493 L1419,15.7292486 C1419,15.3150421 1419.3358,14.9792374 1419.75001,14.9792374 L1420.70189,14.9792374 C1420.84173,14.4451487 1421.05153,13.9407316 1421.32395,13.4756274 L1420.65115,12.8029716 C1420.35824,12.5100674 1420.35824,12.0351724 1420.65115,11.7422682 L1421.74152,10.6518184 C1422.03443,10.3588394 1422.50932,10.3588394 1422.80222,10.6517437 L1423.47488,11.3243995 C1423.94006,11.0518991 1424.44455,10.841881 1424.97879,10.7020434 L1424.97879,9.75001121 C1424.97879,9.33572998 1425.31459,9 1425.7288,9 Z M1426.50138,13.7478139 C1424.9815,13.7478139 1423.74938,14.979926 1423.74938,16.4998134 C1423.74938,18.0197007 1424.9815,19.2518129 1426.50138,19.2518129 C1428.02127,19.2518129 1429.25338,18.0197007 1429.25338,16.4998134 C1429.25338,14.979926 1428.02127,13.7478139 1426.50138,13.7478139 Z" id="Combined-Shape"></path>
                    </g>
                </g>
            </g>
        </symbol>
        <symbol id="cross" width="11" height="11" viewBox="0 0 11 11" xmlns="http://www.w3.org/2000/svg">
            <g id="Page-1" stroke="none" stroke-width="1" fill="none" fill-rule="evenodd">
                <g id="Логистика-Copy-39" transform="translate(-289.000000, -154.000000)" fill="#1253A2">
                    <g id="Group-10" transform="translate(254.000000, 122.000000)">
                        <g id="Кнопка-в-корзину" transform="translate(25.000000, 20.000000)">
                            <path d="M15.5,12 C15.7761424,12 16,12.2238576 16,12.5 L16,17 L20.5,17 C20.7761424,17 21,17.2238576 21,17.5 C21,17.7761424 20.7761424,18 20.5,18 L16,18 L16,22.5 C16,22.7761424 15.7761424,23 15.5,23 C15.2238576,23 15,22.7761424 15,22.5 L15,17.999 L10.5,18 C10.2238576,18 10,17.7761424 10,17.5 C10,17.2238576 10.2238576,17 10.5,17 L15,16.999 L15,12.5 C15,12.2238576 15.2238576,12 15.5,12 Z" id="Combined-Shape"></path>
                        </g>
                    </g>
                </g>
            </g>
        </symbol>
        <symbol id="menuOpen" width="11" height="12" viewBox="0 0 11 12" xmlns="http://www.w3.org/2000/svg">
            <g id="Page-1" stroke="none" stroke-width="1" fill="none" fill-rule="evenodd">
                <g id="Логистика-Copy-37" transform="translate(-270.000000, -316.000000)" fill="#A6B7D4">
                    <g id="Group-2-Copy-7" transform="translate(254.000000, 222.000000)">
                        <g id="Group-Copy-3" transform="translate(1.000000, 78.000000)">
                            <g id="Group-11" transform="translate(15.000000, 15.000000)">
                                <path d="M1,1 L10,1 C10.5522847,1 11,1.44771525 11,2 C11,2.55228475 10.5522847,3 10,3 L1,3 C0.44771525,3 5.11724585e-16,2.55228475 0,2 C-6.76353751e-17,1.44771525 0.44771525,1 1,1 Z M1,6 L10,6 C10.5522847,6 11,6.44771525 11,7 C11,7.55228475 10.5522847,8 10,8 L1,8 C0.44771525,8 5.11724585e-16,7.55228475 0,7 C-6.76353751e-17,6.44771525 0.44771525,6 1,6 Z M1,11 L10,11 C10.5522847,11 11,11.4477153 11,12 C11,12.5522848 10.5522847,13 10,13 L1,13 C0.44771525,13 5.11724585e-16,12.5522848 0,12 C-6.76353751e-17,11.4477153 0.44771525,11 1,11 Z" id="Combined-Shape"></path>
                            </g>
                        </g>
                    </g>
                </g>
            </g>
        </symbol>
        <symbol id="menuClose" width="10" height="13" viewBox="0 0 3 13" xmlns="http://www.w3.org/2000/svg">
            <g id="Page-1" stroke="none" stroke-width="1" fill="none" fill-rule="evenodd">
                <g id="Логистика-Copy-37" transform="translate(-314.000000, -361.000000)" fill="#A6B7D4">
                    <g id="Group-2-Copy-7" transform="translate(254.000000, 222.000000)">
                        <g id="Group-Copy-5" transform="translate(1.000000, 123.000000)">
                            <g id="Group-12-Copy" transform="translate(59.000000, 16.000000)">
                                <path d="M1.5,0 C2.32842712,-1.52179594e-16 3,0.671572875 3,1.5 C3,2.32842712 2.32842712,3 1.5,3 C0.671572875,3 1.01453063e-16,2.32842712 0,1.5 C-1.01453063e-16,0.671572875 0.671572875,1.52179594e-16 1.5,0 Z M1.5,5 C2.32842712,5 3,5.67157288 3,6.5 C3,7.32842712 2.32842712,8 1.5,8 C0.671572875,8 1.01453063e-16,7.32842712 0,6.5 C-1.01453063e-16,5.67157288 0.671572875,5 1.5,5 Z M1.5,10 C2.32842712,10 3,10.6715729 3,11.5 C3,12.3284271 2.32842712,13 1.5,13 C0.671572875,13 1.01453063e-16,12.3284271 0,11.5 C-1.01453063e-16,10.6715729 0.671572875,10 1.5,10 Z" id="Combined-Shape"></path>
                            </g>
                        </g>
                    </g>
                </g>
            </g>
        </symbol>
        <symbol id="success" width="9" height="6" viewBox="0 0 9 6" xmlns="http://www.w3.org/2000/svg">
            <g id="Page-1" stroke="none" stroke-width="1" fill="none" fill-rule="evenodd">
                <g id="Логистика-Copy-39" transform="translate(-966.000000, -1085.000000)" fill="#FFFFFF">
                    <g id="Group-26-Copy" transform="translate(954.000000, 987.000000)">
                        <g id="Group-12" transform="translate(10.000000, 7.000000)">
                            <g id="Group-17" transform="translate(0.000000, 87.000000)">
                                <path d="M2.4957554,6.56878911 C2.22195725,6.29499096 2.21108563,5.8502211 2.47637999,5.57018816 L2.43373236,5.6152051 C2.69682977,5.33749117 3.13625983,5.33850702 3.41212236,5.61436955 L5.6531289,7.85537609 C5.72989975,7.93214695 5.85360397,7.93791618 5.93681104,7.86148178 L9.62456511,4.47389374 C9.90948016,4.21216946 10.3398081,4.23453959 10.5903639,4.52931111 L10.5500856,4.48192485 C10.7985664,4.7742553 10.7762245,5.21980337 10.4816104,5.49439522 L6.1583418,9.52384943 C5.95609127,9.71235477 5.62919154,9.70222525 5.44217708,9.51521078 L2.4957554,6.56878911 Z" id="Path"></path>
                            </g>
                        </g>
                    </g>
                </g>
            </g>
        </symbol>
        <symbol id="arrowRight" width="5" height="11" viewBox="0 0 5 9" xmlns="http://www.w3.org/2000/svg">
            <g id="Page-1" stroke="none" stroke-width="1" fill="none" fill-rule="evenodd">
                <g id="Логистика-Copy-39" transform="translate(-920.000000, -997.000000)" fill="#000000">
                    <g id="Group-26" transform="translate(755.000000, 987.000000)">
                        <g id="Group-12" transform="translate(10.000000, 7.000000)">
                            <polygon id="Path-11" transform="translate(157.045455, 7.500000) scale(-1, 1) translate(-157.045455, -7.500000) " points="157.770282 3 159.046865 3.00589775 156.636364 7.5 159.090909 11.9961705 157.810724 12 155 7.5"></polygon>
                        </g>
                    </g>
                </g>
            </g>
        </symbol>
    </defs>
</svg>